<svg xmlns="http://www.w3.org/2000/svg" viewBox="0 0 640 420" role="img" aria-label="Кухня Fabriq">
  <defs>
    <linearGradient id="bg" x1="0" x2="1" y1="0" y2="1">
      <stop offset="0" stop-color="#1a1a1a"/>
      <stop offset="1" stop-color="#2a2a2a"/>
    </linearGradient>
    <linearGradient id="light" x1="0" x2="0" y1="0" y2="1">
      <stop offset="0" stop-color="#f2f2f2" stop-opacity="0.28"/>
      <stop offset="1" stop-color="#f2f2f2" stop-opacity="0"/>
    </linearGradient>
  </defs>
  <rect width="640" height="420" fill="url(#bg)"/>
  <rect x="48" y="70" width="200" height="110" rx="10" fill="#f9f9f9"/>
  <rect x="262" y="70" width="160" height="110" rx="10" fill="#ececec"/>
  <rect x="436" y="70" width="156" height="250" rx="10" fill="#e0e0e0"/>
  <rect x="48" y="196" width="374" height="124" rx="10" fill="#d4d4d4"/>
  <rect x="70" y="224" width="90" height="10" rx="5" fill="#ababab"/>
  <rect x="170" y="224" width="90" height="10" rx="5" fill="#ababab"/>
  <rect x="270" y="224" width="90" height="10" rx="5" fill="#ababab"/>
  <rect x="70" y="250" width="90" height="10" rx="5" fill="#ababab"/>
  <rect x="170" y="250" width="90" height="10" rx="5" fill="#ababab"/>
  <rect x="270" y="250" width="90" height="10" rx="5" fill="#ababab"/>
  <rect x="0" y="0" width="640" height="420" fill="url(#light)"/>
</svg>
